<?xml version="1.0" encoding="UTF-8"?>
<svg xmlns="http://www.w3.org/2000/svg" width="175" height="56" viewBox="0 0 175 56" fill="none">
  <g clip-path="url(#clip0_91_2083)">
    <path d="M144.951 29.313H142.095V18.8457C142.095 18.8087 141.91 18.4388 141.873 18.3648C141.353 17.6251 140.166 17.5511 139.573 18.2909C138.98 19.0306 139.313 18.7347 139.313 18.8087V29.35H136.383V18.8087C136.383 18.6977 136.087 18.2539 135.975 18.1429C135.345 17.5881 134.306 17.6621 133.824 18.3648C133.342 19.0676 133.602 18.8087 133.602 18.8457V29.313H130.746V18.5128C130.746 17.995 131.339 16.8853 131.673 16.4415C133.231 14.5182 136.013 14.3332 137.904 15.9237C140.092 13.9264 143.69 14.8141 144.728 17.5881C144.803 17.81 145.025 18.3648 145.025 18.5498V29.2761L144.951 29.313Z" fill="currentColor"/>
    <path d="M101.854 22.2855C101.854 26.3541 98.5526 29.6459 94.4728 29.6459C90.393 29.6459 87.092 26.3541 87.092 22.2855C87.092 18.2169 90.393 14.925 94.4728 14.925C98.5526 14.925 101.854 18.2169 101.854 22.2855ZM98.9976 22.2485C98.9976 19.7703 96.9577 17.736 94.4728 17.736C91.9878 17.736 89.9479 19.7703 89.9479 22.2485C89.9479 24.7266 91.9878 26.7609 94.4728 26.7609C96.9577 26.7609 98.9976 24.7266 98.9976 22.2485Z" fill="currentColor"/>
    <path d="M158.748 29.313H155.892V26.465H150.218V29.313H147.362V19.9183C147.362 19.7334 147.584 19.0676 147.659 18.8457C149.328 14.2592 155.707 13.7784 158.043 18.0319C158.266 18.4758 158.748 19.5854 158.748 20.0662V29.313ZM155.855 23.617V20.3991C155.855 20.1772 155.521 19.4744 155.41 19.2525C154.335 17.5141 151.701 17.5511 150.626 19.2525C150.514 19.4375 150.218 20.0662 150.218 20.2512V23.617H155.892H155.855Z" fill="currentColor"/>
    <path d="M172.471 29.3131H169.615V26.465H163.941V29.3131H161.085V19.9923C161.085 19.6594 161.493 18.5868 161.641 18.2169C163.681 14.1483 169.578 14.0373 171.766 18.032C172.026 18.4758 172.471 19.5854 172.471 20.0663V29.3131ZM169.615 23.617V20.3991C169.615 20.1772 169.281 19.4745 169.17 19.2525C168.095 17.5141 165.461 17.5511 164.386 19.2525C163.31 20.9539 163.978 20.0663 163.978 20.2512V23.617H169.652H169.615Z" fill="currentColor"/>
    <path d="M103.671 29.313V15.11H108.9C109.939 15.11 111.831 16.0716 112.646 16.7744C116.986 20.4731 115.428 27.5746 109.939 29.0911C104.45 30.6076 109.012 29.35 108.789 29.35H103.708L103.671 29.313ZM106.601 26.465H108.418C110.681 26.465 112.424 23.9129 112.238 21.7677C112.09 20.0662 110.31 17.958 108.53 17.958H106.564V26.465H106.601Z" fill="currentColor"/>
    <path d="M78.4874 15.11V22.1005L83.7912 15.11H87.0179L82.5672 21.1389L87.0179 29.3131H83.7912L80.6757 23.617L78.4874 26.428V29.3131H75.5574V15.11H78.4874Z" fill="currentColor"/>
    <path d="M119.73 15.11V24.0609C119.73 24.2828 120.027 24.9116 120.138 25.0965C121.288 26.9829 124.033 26.9089 125.071 24.9855C125.145 24.8376 125.405 24.3198 125.405 24.1718V15.11H128.335V23.654C128.261 28.3514 122.846 31.0515 119.063 28.1664C118.061 27.4267 116.875 25.5773 116.875 24.3198V15.11H119.73Z" fill="currentColor"/>
    <path d="M70.031 1.83154H68.6958V55.5H70.031V1.83154Z" fill="currentColor"/>
    <path d="M106.156 33.3077L109.605 39.2256V33.3077H111.46V42.4065H109.42L105.933 36.4886V42.4065H104.079V33.3077H106.156Z" fill="currentColor"/>
    <path d="M94.4357 33.3077L97.9592 39.1517V33.3077H99.8136V42.4065H97.8479L94.3615 36.5626V42.4065H92.47V33.3077H94.4357Z" fill="currentColor"/>
    <path d="M158.377 33.3077C158.897 33.3817 159.713 33.7885 160.158 34.1214C162.049 35.6749 161.901 38.7448 159.75 40.0024L160.751 42.4065H158.86L158.006 40.6311H156.041V42.4065H154.186V33.3077H158.414H158.377ZM156.004 38.7448H158.155C158.192 38.7448 158.637 38.5229 158.748 38.4489C159.824 37.7831 159.898 36.2297 158.897 35.4899C157.895 34.7502 158.34 35.157 158.229 35.157H156.004V38.7448Z" fill="currentColor"/>
    <path d="M149.921 42.4065H148.067V40.6312H144.469V42.4065H142.615V36.5256C142.615 34.6022 144.914 33.1227 146.694 33.3077C148.067 33.4186 149.921 34.9351 149.921 36.3776V42.4065ZM148.067 38.7448V36.5256C148.067 36.4886 147.807 35.9708 147.77 35.8968C147.028 34.8242 145.322 34.8981 144.691 36.0817C144.061 37.2653 144.469 36.5626 144.469 36.5995V38.7448H148.067Z" fill="currentColor"/>
    <path d="M172.471 42.4065H170.617V40.6311H167.019V42.4065H165.165V36.5256C165.165 36.0447 165.647 35.0461 165.981 34.6762C167.761 32.457 171.247 33.0118 172.286 35.6379C173.324 38.264 172.508 36.2666 172.508 36.4146V42.4435L172.471 42.4065ZM170.58 38.7448V36.5256C170.58 36.4886 170.32 35.9707 170.283 35.8968C169.541 34.8241 167.835 34.8981 167.204 36.0817C166.574 37.2653 166.982 36.5625 166.982 36.5995V38.7448H170.58Z" fill="currentColor"/>
    <path d="M128.261 33.3077V35.157H123.773C123.662 35.157 123.254 35.6009 123.217 35.7488C122.809 37.4502 125.331 36.8585 126.295 36.9694C128.187 37.1544 129.225 39.4476 128.261 41.075C127.297 42.7024 127.037 42.4435 126.406 42.4435H121.77V40.6681L121.882 40.5572H126.221C126.295 40.5572 126.555 40.2983 126.629 40.2243C127 39.7065 126.74 38.8927 126.11 38.8188C125.22 38.7078 124.292 38.9297 123.365 38.7078C120.954 38.079 120.583 34.7872 122.809 33.6036C122.957 33.5296 123.439 33.3077 123.588 33.3077H128.298H128.261Z" fill="currentColor"/>
    <path d="M77.4119 33.3077V37.7461L80.8611 33.3077H82.901L80.0823 37.1174L82.901 42.4065H80.8611L78.8954 38.8188C78.7841 38.8188 78.7471 38.8188 78.71 38.9297C78.5616 39.0777 77.4489 40.5572 77.4489 40.6681V42.4435H75.5945V33.3447H77.4489L77.4119 33.3077Z" fill="currentColor"/>
    <path d="M133.75 33.3077L135.493 39.2996L137.348 33.3077H139.462L136.383 42.4065L134.566 42.3326L131.599 33.3077H133.75Z" fill="currentColor"/>
    <path d="M88.2048 33.3077H86.3503V42.4065H88.2048V33.3077Z" fill="currentColor"/>
    <path d="M117.579 33.3077H115.725V42.4065H117.579V33.3077Z" fill="currentColor"/>
    <path d="M47.518 46.6231C46.4795 45.7724 45.3668 46.5491 44.5137 44.6628C43.6607 42.7764 44.217 42.9613 43.3269 42.8874C43.2527 42.5545 43.5494 41.9997 43.2898 41.7778C43.0302 41.5558 42.3255 41.5558 41.9917 41.4819C40.8048 41.149 40.8048 40.4462 39.9147 39.8174C39.0616 39.1887 37.9861 38.7448 37.0588 38.19C36.1316 37.6352 35.9462 37.1544 35.056 37.3023C34.1659 37.4503 31.7922 39.2626 30.7908 39.8174C29.7894 40.3722 29.6781 40.4462 29.1588 40.6312C28.7138 40.7791 27.6753 41.186 27.4898 40.5202C27.3044 39.8544 27.8607 38.7448 27.8978 38.116C27.9349 37.4872 27.7495 36.3406 27.8607 35.6009C27.972 34.8611 29.6039 34.0104 29.3443 32.9008C29.0847 31.7912 28.0462 31.6063 27.3415 31.8652C26.1175 32.309 26.2659 34.8611 24.8194 34.1584C23.3729 33.4556 24.226 33.1227 23.8551 32.9378C23.0021 32.531 20.8138 33.1227 20.6654 31.6433C20.5913 30.8295 20.888 30.3857 20.5171 29.461C20.2204 28.7213 18.9964 27.6856 18.9964 27.0568C18.9964 26.4281 20.6654 25.3184 20.5913 25.0225C20.4429 24.7636 20.072 24.7636 19.8124 24.6527C19.1077 24.3568 18.3288 23.765 17.8467 23.1362C17.3645 22.5074 17.1049 22.1375 17.7354 22.0636C18.3659 21.9896 20.1462 22.3965 20.48 21.4718C20.9622 20.1402 18.7739 21.1019 18.5884 20.1032C18.403 19.1046 18.811 18.9566 18.8481 18.5128C18.9222 17.5511 18.5514 16.9223 19.7753 16.6634C20.9992 16.4045 22.3344 16.4415 23.7438 15.6278C24.7452 15.036 25.2274 14.0743 26.2288 13.5935C28.0833 12.7058 30.5682 12.7798 32.3114 11.7441C34.0546 10.7085 32.7194 11.3743 32.9048 11.2633C33.9804 10.6345 34.8706 11.4112 35.9091 11.6332C37.8377 12.003 39.5809 10.2277 41.6208 10.0797C43.6607 9.93176 45.2184 11.0044 47.0729 11.1523C48.9273 11.3003 48.4452 10.4866 49.0015 10.5605C49.5579 10.6345 50.856 11.8551 51.4865 12.225C53.4151 13.2976 54.4165 12.3359 56.3452 12.5209C58.2738 12.7058 58.3851 13.1127 59.4236 13.1866C60.4621 13.2606 63.355 12.8168 63.3921 14.4812C63.4292 16.1456 62.3907 15.8127 61.7602 16.2936C60.6104 17.1813 60.6104 20.0663 59.3865 20.4361C58.1625 20.806 58.2367 20.3252 57.6804 20.2882C56.1597 20.1772 53.4151 20.5471 52.2283 21.5457C50.1884 23.2102 53.2668 25.2445 54.1198 26.65C54.7503 27.6856 54.602 28.6103 54.8987 29.7199C55.2696 31.1254 56.0855 32.494 56.5677 33.9365C57.0499 35.379 57.3095 38.079 58.2367 39.4106C59.1639 40.7421 59.6832 40.7421 59.7203 41.186C59.7945 41.8147 58.9043 42.1476 58.4963 42.5545C56.9386 43.997 58.4963 45.6244 56.5677 46.919C54.7503 48.1396 54.3053 47.0299 52.8588 46.1792C51.7461 45.5135 51.7832 45.8464 50.856 46.3642C50.1513 46.734 48.7419 47.4368 47.9259 47.1779C47.11 46.919 47.6292 46.882 47.518 46.771V46.6231Z" fill="currentColor"/>
    <path d="M17.5128 30.7926C16.9935 30.9775 16.4001 30.9405 15.9179 31.0885C15.0278 31.3474 13.9893 32.6049 13.2475 33.1967C12.5057 33.7885 11.5043 34.4173 10.5771 34.5283C9.5386 34.6392 8.20339 34.3064 7.57288 35.453C6.94236 36.5996 7.57288 36.7845 7.4987 37.5612C7.38743 38.4859 6.53438 40.7791 5.34753 40.7051C4.23486 40.6312 4.79119 39.4846 5.125 38.9298C5.4588 38.3749 6.34894 37.4133 6.42311 37.0434C6.68274 35.4899 3.86397 35.231 3.60434 34.3433C3.34472 33.4556 4.4203 33.7515 4.27195 32.8269C4.12359 31.8652 3.45599 31.2364 4.04941 30.1638C4.64284 29.0912 4.97664 30.7556 5.57006 30.5706C6.16349 30.3857 6.34894 28.8322 6.75692 28.7583C7.1649 28.6843 7.27616 29.498 7.72123 29.461C8.1663 29.424 9.2048 27.4267 9.94658 27.7596C10.6884 28.0925 10.2804 28.2035 10.5029 28.3514C10.948 28.6843 11.5043 28.4624 11.9494 28.2035C12.3945 27.9445 12.7283 27.4637 12.9879 27.4637C13.2475 27.4637 14.4715 28.7583 14.8794 29.0542C15.2874 29.3501 17.3644 30.3487 17.5498 30.6446C17.7353 30.9405 17.5869 30.7556 17.5498 30.8296L17.5128 30.7926Z" fill="currentColor"/>
    <path d="M8.94524 22.7663C8.64853 22.4334 7.98093 22.7293 7.61004 22.7663C6.86825 22.8033 5.05089 22.8773 5.19924 21.7677C5.64431 21.5457 6.16356 21.7677 6.60863 21.7677C7.0537 21.7677 7.12788 21.5457 7.35041 21.5827C7.83257 21.5827 8.09219 22.1375 8.79689 21.8047C9.50158 21.4718 9.0936 21.2868 9.13069 20.88C9.16778 20.4731 9.68703 20.1772 9.94665 19.8813C10.2063 19.5854 10.5401 18.4018 11.1335 18.8457C11.7269 19.2895 11.1335 19.9553 11.6527 20.4731C12.172 20.9909 12.988 20.732 13.433 21.1019C13.8781 21.4718 13.841 21.6937 13.9894 21.9156C14.249 22.2485 15.2504 23.3211 14.7682 23.765C14.2861 24.2088 14.0635 23.2841 13.4701 23.5431C12.8767 23.802 13.2105 24.2088 13.0992 24.4308C12.988 24.6527 12.4687 24.6157 12.2462 24.5417C11.7269 24.3938 11.6157 23.839 11.2819 24.5787C10.9481 25.3184 10.8739 26.3911 10.0579 26.3171C8.7598 26.2431 9.53867 23.3211 8.98233 22.6924L8.94524 22.7663Z" fill="currentColor"/>
    <path d="M15.473 26.465C15.7326 26.3911 17.0307 26.9089 17.2903 27.0938C17.7354 27.4267 18.3659 29.0172 17.8096 29.424C17.2532 29.8309 16.6598 28.6473 16.1406 28.4254C15.6213 28.2034 15.1021 28.3884 14.6941 28.0925C14.8054 27.8705 15.0279 27.6856 15.1392 27.4637C15.2504 27.2418 15.2875 26.539 15.473 26.465Z" fill="currentColor"/>
    <path d="M15.3986 20.88C15.0277 19.1786 16.1033 20.2142 16.7709 20.2142C17.4385 20.2142 17.1788 20.1032 17.4756 20.2142C17.7723 20.3252 17.8094 20.806 17.5497 21.0279C17.1788 21.3238 15.8807 21.1019 15.4357 20.917L15.3986 20.88Z" fill="currentColor"/>
  </g>
  <defs>
    <clipPath id="clip0_91_2083">
      <rect width="175" height="55" fill="white" transform="translate(0 0.5)"/>
    </clipPath>
  </defs>
</svg>
