<svg width="44" height="59" viewBox="0 0 44 59" fill="none" xmlns="http://www.w3.org/2000/svg">
<g clip-path="url(#clip0_803_50)">
<path d="M24.0861 0.634415C22.8257 -0.206796 21.1757 -0.206796 19.9153 0.634415L17.8757 1.98266C17.1882 2.43207 16.3861 2.65102 15.5725 2.60492L13.1319 2.45512C11.6194 2.36293 10.1986 3.19262 9.52255 4.55238L8.41109 6.75336C8.04443 7.49086 7.44859 8.09008 6.71526 8.45883L4.52672 9.56508C3.17463 10.245 2.34963 11.6739 2.4413 13.195L2.59026 15.6495C2.63609 16.4676 2.41838 17.2858 1.97151 17.9657L0.630884 20.0284C-0.205575 21.2959 -0.205575 22.9553 0.630884 24.2229L1.97151 26.2741C2.41838 26.9655 2.63609 27.7721 2.59026 28.5903L2.4413 31.0448C2.34963 32.5659 3.17463 33.9948 4.52672 34.6746L6.71526 35.7809C7.44859 36.1497 8.03297 36.7489 8.39963 37.4748L9.51109 39.6989C10.1871 41.0586 11.608 41.8883 13.1205 41.7961L15.5611 41.6463C16.3746 41.6002 17.1882 41.8192 17.8642 42.2686L19.9038 43.6284C21.1642 44.4696 22.8142 44.4696 24.0746 43.6284L26.1257 42.2686C26.8132 41.8192 27.6153 41.6002 28.4288 41.6463L30.8694 41.7961C32.3819 41.8883 33.8028 41.0586 34.4788 39.6989L35.5788 37.4979C35.9455 36.7604 36.5413 36.1727 37.2632 35.8039L39.4517 34.6977C40.8038 34.0178 41.6288 32.5889 41.5371 31.0678L41.3882 28.6133C41.3423 27.7952 41.5601 26.977 42.0069 26.2971L43.359 24.2459C44.1955 22.9784 44.1955 21.319 43.359 20.0514L42.0298 17.9772C41.583 17.2858 41.3653 16.4791 41.4111 15.661L41.5601 13.2065C41.6517 11.6854 40.8267 10.2565 39.4746 9.5766L37.2861 8.47035C36.5528 8.1016 35.9684 7.50238 35.6017 6.77641L34.4903 4.55238C33.8142 3.19262 32.3934 2.36293 30.8809 2.45512L28.4403 2.60492C27.6267 2.65102 26.8132 2.43207 26.1371 1.98266L24.0861 0.634415ZM22.0007 12.9069C24.4318 12.9069 26.7634 13.8781 28.4825 15.607C30.2016 17.3358 31.1673 19.6807 31.1673 22.1256C31.1673 24.5706 30.2016 26.9154 28.4825 28.6443C26.7634 30.3731 24.4318 31.3444 22.0007 31.3444C19.5695 31.3444 17.2379 30.3731 15.5189 28.6443C13.7998 26.9154 12.834 24.5706 12.834 22.1256C12.834 19.6807 13.7998 17.3358 15.5189 15.607C17.2379 13.8781 19.5695 12.9069 22.0007 12.9069Z" fill="white"/>
<path d="M24.0861 0.634415C22.8257 -0.206796 21.1757 -0.206796 19.9153 0.634415L17.8757 1.98266C17.1882 2.43207 16.3861 2.65102 15.5725 2.60492L13.1319 2.45512C11.6194 2.36293 10.1986 3.19262 9.52255 4.55238L8.41109 6.75336C8.04443 7.49086 7.44859 8.09008 6.71526 8.45883L4.52672 9.56508C3.17463 10.245 2.34963 11.6739 2.4413 13.195L2.59026 15.6495C2.63609 16.4676 2.41838 17.2858 1.97151 17.9657L0.630884 20.0284C-0.205575 21.2959 -0.205575 22.9553 0.630884 24.2229L1.97151 26.2741C2.41838 26.9655 2.63609 27.7721 2.59026 28.5903L2.4413 31.0448C2.34963 32.5659 3.17463 33.9948 4.52672 34.6746L6.71526 35.7809C7.44859 36.1497 8.03297 36.7489 8.39963 37.4748L9.51109 39.6989C10.1871 41.0586 11.608 41.8883 13.1205 41.7961L15.5611 41.6463C16.3746 41.6002 17.1882 41.8192 17.8642 42.2686L19.9038 43.6284C21.1642 44.4696 22.8142 44.4696 24.0746 43.6284L26.1257 42.2686C26.8132 41.8192 27.6153 41.6002 28.4288 41.6463L30.8694 41.7961C32.3819 41.8883 33.8028 41.0586 34.4788 39.6989L35.5788 37.4979C35.9455 36.7604 36.5413 36.1727 37.2632 35.8039L39.4517 34.6977C40.8038 34.0178 41.6288 32.5889 41.5371 31.0678L41.3882 28.6133C41.3423 27.7952 41.5601 26.977 42.0069 26.2971L43.359 24.2459C44.1955 22.9784 44.1955 21.319 43.359 20.0514L42.0298 17.9772C41.583 17.2858 41.3653 16.4791 41.4111 15.661L41.5601 13.2065C41.6517 11.6854 40.8267 10.2565 39.4746 9.5766L37.2861 8.47035C36.5528 8.1016 35.9684 7.50238 35.6017 6.77641L34.4903 4.55238C33.8142 3.19262 32.3934 2.36293 30.8809 2.45512L28.4403 2.60492C27.6267 2.65102 26.8132 2.43207 26.1371 1.98266L24.0861 0.634415ZM22.0007 12.9069C24.4318 12.9069 26.7634 13.8781 28.4825 15.607C30.2016 17.3358 31.1673 19.6807 31.1673 22.1256C31.1673 24.5706 30.2016 26.9154 28.4825 28.6443C26.7634 30.3731 24.4318 31.3444 22.0007 31.3444C19.5695 31.3444 17.2379 30.3731 15.5189 28.6443C13.7998 26.9154 12.834 24.5706 12.834 22.1256C12.834 19.6807 13.7998 17.3358 15.5189 15.607C17.2379 13.8781 19.5695 12.9069 22.0007 12.9069Z" fill="#ED2D26"/>
<g opacity="0.4">
<path d="M6.51977 35.6881L0.148934 50.9105C-0.10315 51.5213 -0.011483 52.2242 0.389559 52.7543C0.7906 53.2844 1.45518 53.5494 2.10831 53.4457L8.53643 52.4893L12.226 58.1588C12.5927 58.735 13.2458 59.0461 13.9219 58.9885C14.5979 58.9309 15.1823 58.493 15.4458 57.8707L21.1864 44.1578C20.7396 44.0541 20.3156 43.8813 19.926 43.6162L17.875 42.268C17.1875 41.8186 16.3854 41.5996 15.5719 41.6457L13.1312 41.7955C11.6187 41.8877 10.1979 41.058 9.52185 39.6982L8.42185 37.4973C8.05518 36.7598 7.45935 36.1721 6.73748 35.8033L6.53123 35.6996L6.51977 35.6881ZM22.825 44.1578L28.5656 57.8707C28.8291 58.5045 29.4135 58.9309 30.0896 58.9885C30.7656 59.0461 31.4187 58.735 31.7854 58.1588L35.475 52.4893L41.9031 53.4457C42.5562 53.5379 43.2094 53.2729 43.6219 52.7543C44.0344 52.2357 44.1146 51.5213 43.8625 50.9105L37.4802 35.6881L37.2739 35.7918C36.5406 36.1605 35.9562 36.7598 35.5896 37.4857L34.4896 39.6982C33.8135 41.058 32.3927 41.8877 30.8802 41.7955L28.4396 41.6457C27.626 41.5996 26.8125 41.8186 26.1364 42.268L24.0969 43.6277C23.7073 43.8928 23.2719 44.0656 22.8364 44.1693L22.825 44.1578Z" fill="white"/>
<path d="M6.51977 35.6881L0.148934 50.9105C-0.10315 51.5213 -0.011483 52.2242 0.389559 52.7543C0.7906 53.2844 1.45518 53.5494 2.10831 53.4457L8.53643 52.4893L12.226 58.1588C12.5927 58.735 13.2458 59.0461 13.9219 58.9885C14.5979 58.9309 15.1823 58.493 15.4458 57.8707L21.1864 44.1578C20.7396 44.0541 20.3156 43.8813 19.926 43.6162L17.875 42.268C17.1875 41.8186 16.3854 41.5996 15.5719 41.6457L13.1312 41.7955C11.6187 41.8877 10.1979 41.058 9.52185 39.6982L8.42185 37.4973C8.05518 36.7598 7.45935 36.1721 6.73748 35.8033L6.53123 35.6996L6.51977 35.6881ZM22.825 44.1578L28.5656 57.8707C28.8291 58.5045 29.4135 58.9309 30.0896 58.9885C30.7656 59.0461 31.4187 58.735 31.7854 58.1588L35.475 52.4893L41.9031 53.4457C42.5562 53.5379 43.2094 53.2729 43.6219 52.7543C44.0344 52.2357 44.1146 51.5213 43.8625 50.9105L37.4802 35.6881L37.2739 35.7918C36.5406 36.1605 35.9562 36.7598 35.5896 37.4857L34.4896 39.6982C33.8135 41.058 32.3927 41.8877 30.8802 41.7955L28.4396 41.6457C27.626 41.5996 26.8125 41.8186 26.1364 42.268L24.0969 43.6277C23.7073 43.8928 23.2719 44.0656 22.8364 44.1693L22.825 44.1578Z" fill="#ED2D26"/>
</g>
<path d="M35.2 22.4051C35.2 29.8294 29.2902 35.8481 22 35.8481C14.7099 35.8481 8.80005 29.8294 8.80005 22.4051C8.80005 14.9807 14.7099 8.96202 22 8.96202C29.2902 8.96202 35.2 14.9807 35.2 22.4051Z" fill="white"/>
<path d="M22.0156 12.6962L13.9333 20.7202V29.8734H24.0992L22.4797 25.9668L20.2131 27.5443L20.2465 18.2365L26.8105 24.6676L24.1304 25.2471L26.0503 29.8734H30.0667V20.7202L22.0156 12.6962Z" fill="#ED2D26"/>
</g>
<defs>
<clipPath id="clip0_803_50">
<rect width="44" height="59" fill="white"/>
</clipPath>
</defs>
</svg>
