<?xml version="1.0" encoding="UTF-8"?>
<svg id="Layer_1" data-name="Layer 1" xmlns="http://www.w3.org/2000/svg" viewBox="0 0 48 46">
  <defs>
    <style>
      .cls-1 {
        fill: #b8775a;
      }
    </style>
  </defs>
  <path class="cls-1" d="M2.26,45.1V.9h22.77c4.22,0,7.45.36,9.68,1.09s4.03,2.07,5.4,4.03,2.05,4.35,2.05,7.16c0,2.45-.52,4.57-1.57,6.35-1.05,1.78-2.49,3.22-4.31,4.33-1.17.7-2.77,1.29-4.8,1.75,1.63.54,2.81,1.09,3.56,1.63.5.36,1.23,1.14,2.18,2.32.95,1.19,1.59,2.1,1.91,2.74l6.61,12.81h-15.43l-7.3-13.51c-.92-1.75-1.75-2.88-2.47-3.41-.99-.68-2.1-1.03-3.35-1.03h-1.21v17.94H2.26ZM15.98,18.81h5.76c.62,0,1.83-.2,3.62-.6.9-.18,1.64-.64,2.22-1.39s.86-1.6.86-2.56c0-1.43-.45-2.52-1.36-3.29s-2.6-1.15-5.1-1.15h-6v8.99Z"/>
</svg>
